HIERARCHY
ROOT Hips
{
	OFFSET -0.179506 -22.333345 2.821913
	CHANNELS 6 Xposition Yposition Zposition Zrotation Yrotation Xrotation 
	JOINT LeftUpLeg
	{
		OFFSET 6.951974 -9.140623 -0.681533
		CHANNELS 3 Zrotation Yrotation Xrotation
		JOINT LeftLeg
		{
			OFFSET 3.427654 -37.519855 -0.449580
			CHANNELS 3 Zrotation Yrotation Xrotation
			JOINT LeftFoot
			{
				OFFSET -1.359570 -39.796059 -4.369333
				CHANNELS 3 Zrotation Yrotation Xrotation
				JOINT LeftToe
				{
					OFFSET 2.635814 -5.579078 11.928840
					CHANNELS 3 Zrotation Yrotation Xrotation
					End Site
					{
						OFFSET 0.000000 0.000000 0.000000
					}
				}
			}
		}
	}
	JOINT RightUpLeg
	{
		OFFSET -6.767048 -9.052170 -0.431982
		CHANNELS 3 Zrotation Yrotation Xrotation
		JOINT RightLeg
		{
			OFFSET -3.829005 -38.256897 -0.885003
			CHANNELS 3 Zrotation Yrotation Xrotation
			JOINT RightFoot
			{
				OFFSET 1.577377 -39.841461 -4.231180
				CHANNELS 3 Zrotation Yrotation Xrotation
				JOINT RightToe
				{
					OFFSET -2.537174 -4.814398 12.334795
					CHANNELS 3 Zrotation Yrotation Xrotation
					End Site
					{
						OFFSET 0.000000 0.000000 0.000000
					}
				}
			}
		}
	}
	JOINT Spine
	{
		OFFSET -0.253288 10.896323 -2.669631
		CHANNELS 3 Zrotation Yrotation Xrotation
		JOINT Spine1
		{
			OFFSET 0.548704 13.518043 0.109247
			CHANNELS 3 Zrotation Yrotation Xrotation
			JOINT Spine2
			{
				OFFSET 0.145701 5.292222 2.542457
				CHANNELS 3 Zrotation Yrotation Xrotation
				JOINT Neck
				{
					OFFSET -0.277840 21.387037 -4.285703
					CHANNELS 3 Zrotation Yrotation Xrotation
					JOINT Head
					{
						OFFSET 0.515184 6.496960 5.134897
						CHANNELS 3 Zrotation Yrotation Xrotation
						End Site
						{
							OFFSET 0.000000 0.000000 0.000000
						}
					}
				}
				JOINT LeftShoulder
				{
					OFFSET 7.884473 12.174932 -3.408961
					CHANNELS 3 Zrotation Yrotation Xrotation
					JOINT LeftArm
					{
						OFFSET 9.097692 3.046888 -0.886815
						CHANNELS 3 Zrotation Yrotation Xrotation
						JOINT LeftForeArm
						{
							OFFSET 25.961220 -1.277207 -2.745643
							CHANNELS 3 Zrotation Yrotation Xrotation
							JOINT LeftHand
							{
								OFFSET 24.923361 0.898606 -0.117091
								CHANNELS 3 Zrotation Yrotation Xrotation
								End Site
								{
									OFFSET 0.000000 0.000000 0.000000
								}
							}
						}
					}
				}
				JOINT RightShoulder
				{
					OFFSET -8.175920 11.883285 -3.861528
					CHANNELS 3 Zrotation Yrotation Xrotation
					JOINT RightArm
					{
						OFFSET -9.601238 3.255117 -0.914307
						CHANNELS 3 Zrotation Yrotation Xrotation
						JOINT RightForeArm
						{
							OFFSET -25.374195 -1.332924 -2.140099
							CHANNELS 3 Zrotation Yrotation Xrotation
							JOINT RightHand
							{
								OFFSET -25.529810 0.777228 -0.555919
								CHANNELS 3 Zrotation Yrotation Xrotation
								End Site
								{
									OFFSET 0.000000 0.000000 0.000000
								}
							}
						}
					}
				}
			}
		}
	}
}
MOTION
Frames: 17
Frame Time: 0.033333
59.821835 52.806839 92.423187 -175.992372 -0.048698 95.942645 3.014850 0.135335 -8.659315 -5.559513 -5.891549 4.814798 2.363939 6.143555 -14.470753 nan nan nan -4.593576 -3.244535 -10.372080 3.475648 -1.584155 6.492747 4.140642 -5.625777 -11.869818 nan nan nan -0.074374 1.278643 6.601522 1.972913 -3.859663 5.262929 0.964948 -0.507762 -1.317224 -1.531191 7.172009 -6.118041 -1.749307 0.294578 -3.309151 -30.440662 -7.479654 6.069604 -54.502774 -6.417417 16.566812 2.781602 -12.746116 17.623830 -14.914155 -15.094924 -3.332813 32.404019 8.062362 8.931805 52.493065 5.274264 14.480526 -11.213589 13.997799 3.247428 15.511980 6.948396 -1.804957 
59.802746 53.031693 92.359833 -175.997420 -0.058189 95.732610 2.942808 0.034678 -8.332843 -5.469907 -5.946704 4.726346 2.595696 6.001575 -13.725045 nan nan nan -4.589840 -3.283542 -10.103007 3.477518 -1.604414 6.623243 3.866030 -5.627391 -11.384473 nan nan nan -0.053928 1.267525 6.526543 1.923891 -3.857986 5.366177 0.939253 -0.455650 -1.418485 -1.566423 7.070572 -6.160258 -1.697223 0.237228 -3.069064 -30.417252 -7.864746 5.972961 -54.594734 -6.906954 16.544611 3.111865 -12.718776 17.213074 -15.119865 -14.992901 -3.394670 32.428138 8.526344 8.827417 52.504378 5.758702 14.560470 -11.467156 14.143375 2.994754 15.716535 6.902564 -1.788720 
59.727821 53.442619 92.360512 -176.132033 -0.437964 95.061654 2.019523 0.362183 -7.014155 -5.134528 -9.120364 3.945897 3.311297 9.297204 -11.987900 nan nan nan -5.008488 -2.798787 -8.930391 3.577667 -0.213478 6.112173 2.545285 -7.647228 -10.200517 nan nan nan -0.585333 1.569859 5.580891 1.831524 -4.597707 9.297126 1.220854 -0.185806 -4.108731 -3.953657 5.620097 -5.263587 1.612077 1.974253 -4.198205 -30.412985 -9.020592 3.627096 -55.427371 -5.550931 18.482534 4.234837 -11.376350 8.806759 -16.948021 -14.750824 6.245656 32.640958 12.067819 7.540502 52.132501 2.871095 14.700039 -11.153591 14.074732 -1.059150 14.469720 8.717730 0.620670 
59.730770 53.716984 92.311378 -176.106750 -0.399499 94.750432 1.936041 0.438680 -6.649187 -5.054361 -9.490784 4.115299 3.675758 9.558127 -11.608771 nan nan nan -4.947562 -2.644410 -8.448218 3.540325 -0.127002 6.141375 2.165132 -7.864698 -9.997621 nan nan nan -0.575510 1.543226 5.539019 1.853549 -4.672187 9.608357 1.280448 -0.071671 -4.389642 -4.277247 5.364789 -5.077667 1.862975 2.229818 -4.173947 -30.646206 -9.577831 3.403223 -55.126054 -5.783719 18.693313 4.251257 -11.444572 7.924476 -17.210171 -14.533303 7.469320 32.815156 12.788393 7.419028 51.755307 3.006846 14.657734 -11.259879 14.387155 -1.645157 14.625315 8.702604 1.097574 
59.748074 53.856724 92.307549 -176.439806 -0.247986 94.873534 1.969951 0.558908 -6.872154 -4.900591 -9.245935 4.443286 4.065279 9.443005 -11.293218 nan nan nan -4.795221 -3.467909 -8.581689 3.807205 0.689998 6.127773 2.041111 -7.514785 -9.470038 nan nan nan -0.399141 1.864842 5.190551 1.937668 -4.803463 9.924896 1.178506 0.081078 -4.848102 -4.435288 5.265882 -4.804867 1.886371 2.420181 -4.186975 -31.010368 -10.039052 3.190023 -54.698326 -6.059139 18.942090 4.171857 -11.556059 7.301132 -16.804641 -14.143477 7.970906 33.042680 13.206625 7.496594 51.205790 3.520710 14.660331 -11.209603 14.737581 -2.151075 14.444033 8.630818 1.883180 
59.738091 54.081890 92.307442 -176.562838 -0.232875 94.646122 1.888060 0.597947 -6.585974 -4.725083 -9.153122 4.657835 4.274500 9.349451 -11.125724 nan nan nan -4.675839 -3.302208 -8.400869 3.604025 0.652272 6.481068 1.882060 -7.445766 -9.426038 nan nan nan -0.415438 1.908623 5.133915 1.994158 -4.787871 10.150152 1.149050 0.167389 -5.157915 -4.479682 5.303849 -4.585389 1.858184 2.449739 -4.105005 -31.304391 -10.538149 3.090085 -54.304559 -6.422498 18.976878 4.109291 -11.682030 7.123923 -16.502717 -13.941142 8.417544 33.257438 13.711642 7.519999 50.746025 3.929798 14.697530 -11.235312 15.158106 -2.207844 14.189921 8.769113 2.688756 
59.741859 54.305347 92.297516 -176.688092 -0.210698 94.466334 1.877550 0.721026 -6.371530 -4.629757 -8.890698 4.951502 4.394747 9.183519 -11.027229 nan nan nan -4.547584 -3.231589 -8.204250 3.432355 0.660794 6.698740 1.701963 -7.379951 -9.323089 nan nan nan -0.470308 2.008965 4.981792 2.061754 -4.744742 10.392607 1.161611 0.208696 -5.417690 -4.475632 5.339326 -4.361436 1.816423 2.401186 -4.054619 -31.521114 -11.063908 3.087468 -53.903110 -6.879274 19.012463 4.120730 -11.830519 7.227957 -16.596348 -13.697611 8.766238 33.445066 14.177023 7.558346 50.309347 4.387303 14.666064 -11.292512 15.566356 -2.305335 14.181691 8.701930 3.077637 
59.741749 54.507050 92.249840 -176.695281 -0.167327 94.316105 2.012278 0.849090 -6.254260 -4.750214 -8.603890 5.267053 4.417263 8.922636 -10.949539 nan nan nan -4.471344 -3.268583 -8.017426 3.380726 0.662433 6.845231 1.482461 -7.285092 -9.158329 nan nan nan -0.474526 2.085365 4.860426 2.110865 -4.710378 10.465991 1.182349 0.185748 -5.528867 -4.401316 5.256712 -4.227448 1.778945 2.388450 -3.882475 -31.715153 -11.568649 3.182620 -53.529189 -7.465947 19.009629 4.284780 -12.001636 7.428185 -16.807159 -13.461181 8.648002 33.574520 14.640991 7.656679 49.868622 4.939389 14.618612 -11.274125 15.965282 -2.514028 14.209045 8.488376 2.841135 
59.722080 54.707684 92.231720 -176.720766 -0.133366 94.090340 2.133860 0.912601 -5.955365 -4.887622 -8.470974 5.384723 4.450058 8.809566 -10.804680 nan nan nan -4.466633 -3.148280 -7.728211 3.404967 0.594219 6.952213 1.254755 -7.233828 -9.016877 nan nan nan -0.423138 2.096585 4.864517 2.110536 -4.675146 10.453749 1.164865 0.197780 -5.624638 -4.324767 5.122077 -4.149076 1.707731 2.487338 -3.689152 -31.963082 -11.980557 3.205530 -53.129169 -7.970097 19.000608 4.343949 -12.206377 7.522241 -16.560790 -13.257183 8.653444 33.723530 15.086182 7.710687 49.430213 5.591062 14.567564 -11.157411 16.207457 -2.756618 14.072103 8.352682 2.759191 
59.712688 54.950962 92.211418 -176.806704 -0.138113 93.889464 2.160684 0.965042 -5.598679 -4.950338 -8.405510 5.369146 4.490495 8.772015 -10.624197 nan nan nan -4.488481 -3.092095 -7.439727 3.426430 0.566159 7.100653 1.210104 -7.164280 -9.064306 nan nan nan -0.462081 2.107461 4.705392 2.116727 -4.658421 10.635571 1.159965 0.273148 -5.797118 -4.296173 5.141204 -3.994548 1.661325 2.535588 -3.620171 -32.141133 -12.367801 3.102515 -52.828886 -8.415540 18.968732 4.324733 -12.283915 7.522397 -16.263037 -13.057433 8.971467 33.854179 15.535720 7.788208 49.042588 6.223701 14.493302 -11.120249 16.432977 -2.936393 14.030272 8.257235 3.006550 
59.727722 55.200851 92.197571 -176.847507 -0.156035 93.662799 2.197542 0.949361 -5.275517 -5.087796 -8.394605 5.424350 4.563877 8.811455 -10.503878 nan nan nan -4.494810 -3.139194 -7.089285 3.433583 0.583218 7.272226 1.300006 -7.130569 -9.263402 nan nan nan -0.579128 2.137690 4.515925 2.134536 -4.649921 10.878188 1.225818 0.350848 -5.948589 -4.297419 5.201449 -3.845389 1.651119 2.468610 -3.483594 -32.272165 -12.820988 3.028739 -52.464411 -8.945903 18.812910 4.267665 -12.414928 7.372725 -16.207672 -12.831410 9.125545 33.982056 16.003652 7.890228 48.615813 6.840038 14.386711 -11.112396 16.717212 -3.176754 13.986285 8.211845 3.195493 
59.747871 55.430710 92.199303 -176.773674 -0.149346 93.369937 2.261924 0.922230 -5.006386 -5.244074 -8.341788 5.739143 4.616441 8.772330 -10.527506 nan nan nan -4.465152 -3.170433 -6.683581 3.403765 0.545818 7.456428 1.297618 -7.136993 -9.430632 nan nan nan -0.631089 2.161487 4.502359 2.141400 -4.687250 10.977132 1.280259 0.406022 -6.040731 -4.259854 5.243156 -3.645756 1.651589 2.366494 -3.342528 -32.305936 -13.348218 3.041083 -52.052580 -9.539669 18.606384 4.187508 -12.631864 7.253678 -16.423006 -12.743181 9.073642 33.992405 16.503196 7.939175 48.324817 7.411990 14.336527 -11.114571 17.024802 -3.318620 13.913268 8.225354 3.366603 
59.751827 55.631699 92.213562 -176.680842 -0.103975 93.160215 2.315442 0.925680 -4.866797 -5.289701 -8.293218 6.143483 4.676740 8.689093 -10.578662 nan nan nan -4.412138 -3.126716 -6.449857 3.369388 0.447335 7.687145 1.230798 -7.146972 -9.556218 nan nan nan -0.573360 2.170824 4.536199 2.158394 -4.747459 10.886904 1.266469 0.448621 -6.110461 -4.239085 5.293044 -3.411890 1.662275 2.339339 -3.288219 -32.280904 -13.879381 3.003092 -51.747158 -10.040140 18.543380 4.050441 -12.763525 7.174876 -16.270486 -12.772796 9.022603 33.930308 17.016631 7.905550 48.177819 7.884296 14.402058 -11.240072 17.287716 -3.416435 13.762691 8.190426 3.396350 
59.733860 55.824928 92.220016 -176.617526 -0.096519 93.034894 2.252007 0.927134 -4.836570 -5.202263 -8.232107 6.558716 4.725440 8.600293 -10.613594 nan nan nan -4.402392 -3.140604 -6.334750 3.316365 0.356269 7.928568 1.139813 -7.144158 -9.639636 nan nan nan -0.524506 2.220621 4.476370 2.187784 -4.801304 10.820346 1.234622 0.414787 -6.235143 -4.185907 5.382242 -3.186184 1.660267 2.397714 -3.118226 -32.250699 -14.260239 2.807752 -51.549065 -10.454579 18.554832 4.033047 -12.933833 7.045815 -16.159850 -12.766858 9.267056 33.872815 17.506606 7.804424 48.012460 8.331602 14.495131 -11.394743 17.576616 -3.597463 13.818438 8.231874 3.514060 
59.700272 56.037743 92.208893 -176.597872 -0.166503 92.877356 2.102841 0.912347 -4.707897 -5.135082 -8.161922 6.909370 4.651127 8.619381 -10.756144 nan nan nan -4.465189 -3.195928 -6.073416 3.246389 0.396258 8.002473 0.967746 -7.144759 -9.725168 nan nan nan -0.518594 2.279417 4.287785 2.142666 -4.860887 10.949013 1.185276 0.393678 -6.341821 -4.088635 5.466305 -3.071479 1.635888 2.411911 -2.898728 -32.161777 -14.574648 2.602070 -51.342036 -10.968426 18.429549 4.134730 -13.176759 6.783423 -16.340199 -12.744071 9.450988 33.840135 18.009373 7.771064 47.805024 8.894441 14.483265 -11.510390 17.866691 -3.929252 13.821369 8.442960 3.632218 
59.673737 56.237053 92.196327 -176.577059 -0.189683 92.716154 2.042295 0.897359 -4.543349 -5.132278 -8.122543 7.236702 4.509818 8.700344 -10.928880 nan nan nan -4.459509 -3.185677 -5.725482 3.175946 0.422070 7.928349 0.824518 -7.172737 -9.767344 nan nan nan -0.465954 2.317234 4.082646 2.073502 -4.918687 11.101380 1.125586 0.427633 -6.442052 -3.986751 5.582464 -2.984051 1.667746 2.397655 -2.750489 -32.039545 -14.927647 2.434482 -51.130066 -11.491819 18.303606 4.217743 -13.539251 6.520812 -16.461027 -12.704267 9.381131 33.786845 18.488909 7.765865 47.598573 9.505269 14.436347 -11.639898 18.127031 -4.206370 13.732239 8.541001 3.599632 
59.664165 56.442848 92.191620 -176.568317 -0.169819 92.541311 2.073173 0.938997 -4.340470 -5.170813 -8.085512 7.498866 4.444469 8.705360 -11.090085 nan nan nan -4.457698 -3.159752 -5.417850 3.191706 0.351169 7.963919 0.802302 -7.175063 -9.797278 nan nan nan -0.418458 2.339542 3.925056 2.049127 -4.965686 11.228534 1.076267 0.481669 -6.603958 -3.860340 5.652248 -2.870340 1.690007 2.366431 -2.553248 -31.981140 -15.293993 2.334929 -50.899072 -11.985256 18.126743 4.245485 -13.956216 6.143143 -16.195506 -12.675472 9.162453 33.737161 18.945305 7.771594 47.379347 10.072224 14.360624 -11.780168 18.433489 -4.491295 13.651898 8.631242 3.629412 
